# xmcd
#
# Track frame offsets:
#	150
#	22445
#	39623
#	61371
#	73197
#	91292
#	106214
#	124602
#	140243
#	168016
#	183363
#	205112
#	227493
#	246702
#	263093
#	281243
#	300810
#	325688
#
# Disc length: 4553 seconds
#
# Revision: 1
# Processed by: cddbd v1.5.1PL0 Copyright (c) Steve Scherf et al.
# Submitted via: audiograbber 1.83.01
#
DISCID=0611c712
DTITLE=Norsk utflukt - Tida som går (1993-2004)
DYEAR=2004
DGENRE=Blues
TTITLE0=Gutta (Live)
TTITLE1=Diger og gul
TTITLE2=Blues for en av de dagene
TTITLE3=Det blå arret
TTITLE4=Soire
TTITLE5=Hawaii
TTITLE6=Allminnelig mann
TTITLE7=Harry's bar
TTITLE8=Minibar blues
TTITLE9=Din håpløse mann
TTITLE10=Pere lachaise
TTITLE11=404 m.o.h.
TTITLE12=Blues uten grenser
TTITLE13=Mor, mor, du må hente vann (Live)
TTITLE14=Mannen på trappa
TTITLE15=Tida som går
TTITLE16=Ha'kke peil (Live)
TTITLE17=På vei hjem
EXTD=
EXTT0=
EXTT1=
EXTT2=
EXTT3=
EXTT4=
EXTT5=
EXTT6=
EXTT7=
EXTT8=
EXTT9=
EXTT10=
EXTT11=
EXTT12=
EXTT13=
EXTT14=
EXTT15=
EXTT16=
EXTT17=
PLAYORDER=
